<svg id="圖層_1" data-name="圖層 1" xmlns="http://www.w3.org/2000/svg" viewBox="0 0 184.67 73.88"><title>icon_cycle_new</title><path d="M7.67,91.38V119.7H37.22c29.3,0,29.42,0,30.9-2.83,0.86-1.48,3.82-11.33,6.65-21.79C79.69,76.74,79.82,76,77.48,75.63c-3.08-.62-3.94.86-5.79,9.85-0.86,3.94-2,7.39-2.46,7.76s-1.72-3.57-3-8.62c-2-8.37-2.46-9.23-5.17-9.23-1.6,0-3,.49-3,1s1.72,7,3.69,14.16c4.05,14.39,4.29,17.1,2.45,20.67-1.23,2.22-2.83,2.34-25.85,2.34H13.82V69.22H186.18v44.32H131.52c-57.49,0-56.14-.12-56.14,5.05,0,0.62,23.76,1.11,58.48,1.11h58.48V63.06H7.67V91.38Z" transform="translate(-7.67 -63.06)" style="fill:#fff"/><path d="M129.79,75.13c-2.71.37-2.83,0.62-2.46,16.62L127.7,108l10.22,0.37c10.1,0.37,10.1.37,10.1-2.83,0-3-.25-3.08-7.39-3.08h-7.26L133,88.55C132.62,75,132.62,74.76,129.79,75.13Z" transform="translate(-7.67 -63.06)" style="fill:#fff"/><path d="M25,78.45c-10.1,8.49-6.65,25.24,5.91,29.05,5.54,1.6,12.06,0,15.51-3.82,2-2.09,2-2.34-.49-3.69-2.09-1-3.2-1-5.29.62-3.32,2.22-8.25,2.34-11,.25-10.46-8,0-26.35,10.71-18.71,2.34,1.48,3,1.48,4.92,0,2.22-1.85,2.22-2-.62-4.31C40.29,74,30,74.39,25,78.45Z" transform="translate(-7.67 -63.06)" style="fill:#fff"/><path d="M93.6,78.21c-4.43,3.69-5.91,7.14-5.91,13.54,0,13.67,15.76,21.67,26.1,13.17,2.59-2.09,2.71-2.46.74-4.43s-2.22-1.85-4.8,0a9.75,9.75,0,0,1-12.8-1.11c-5.29-5.17-3.45-15.14,3.45-18,3.08-1.35,4.19-1.23,7.39.49,2.71,1.6,4.06,1.85,5.29.74,4.43-3.57-.25-7.14-9.36-7.26C98.4,75.38,96.18,76,93.6,78.21Z" transform="translate(-7.67 -63.06)" style="fill:#fff"/><path d="M157.86,92v16.62h11.7c11.7,0,11.7,0,11.7-3.08s-0.25-3.08-8.62-3.08H164V93.84h6.77c6.4,0,6.77-.12,6.77-3.08s-0.37-3.08-6.77-3.08c-6.65,0-6.77,0-6.77-3.69V80.3h8.62c7.76,0,8.62-.25,8.62-2.46s-0.86-2.46-11.7-2.46h-11.7V92Z" transform="translate(-7.67 -63.06)" style="fill:#fff"/><path d="M84.86,127.95c-1.35,1.23-1,9,.37,9,0.74,0,1.23-2.22,1.23-4.92C86.46,127,86.21,126.47,84.86,127.95Z" transform="translate(-7.67 -63.06)" style="fill:#fff"/><path d="M18.75,132.62c0,3.94.37,4.31,3.45,4.31s3.08-.25,1.23-1.72a6,6,0,0,1-2.22-4.31c0-1.35-.49-2.59-1.23-2.59S18.75,130.28,18.75,132.62Z" transform="translate(-7.67 -63.06)" style="fill:#fff"/><path d="M31.06,132.62c0,2.34.62,4.31,1.23,4.31s1.23-2,1.23-4.31-0.49-4.31-1.23-4.31S31.06,130.28,31.06,132.62Z" transform="translate(-7.67 -63.06)" style="fill:#fff"/><path d="M42.14,132.62c0,2.34.62,4.31,1.23,4.31a1.48,1.48,0,0,0,1.23-1.72,2.73,2.73,0,0,1,2.22-2.34c2-.49,2-0.62,0-0.74-1.23,0-2.22-.62-2.22-1.23s1-1.48,2.22-1.72,0.74-.62-1.23-0.74C42.51,128.31,42.14,128.68,42.14,132.62Z" transform="translate(-7.67 -63.06)" style="fill:#fff"/><path d="M55.68,132.62c0,3.82.37,4.31,3.08,4.31,1.72,0,3.08-.62,3.08-1.23s-1-1.23-2.09-1.23c-1.85,0-2-.25-0.37-1.23,1.23-.74,1.35-1.23.37-1.23-2.34,0-2-2.22.62-2.83,1.23-.37.74-0.62-1.23-0.74C56.05,128.31,55.68,128.68,55.68,132.62Z" transform="translate(-7.67 -63.06)" style="fill:#fff"/><path d="M95.08,130.65c0,1.35.74,2.71,1.6,3s0.49,0.74-.74.74c-3,.12-1.35,2.59,1.72,2.59,2.71,0,3.32-4.31.86-5.29-1.23-.49-1.23-0.74,0-0.74,2.46-.25,1.6-2.59-1-2.59A2.18,2.18,0,0,0,95.08,130.65Z" transform="translate(-7.67 -63.06)" style="fill:#fff"/><path d="M123.64,132.25c-1.6,4.31-1,5.91,1.23,3.69,1.11-1.11,1.85-1.11,3.08,0,0.86,0.74,2,1.11,2.22.74,1-1-2.34-8.37-3.69-8.37C125.73,128.31,124.5,130,123.64,132.25Z" transform="translate(-7.67 -63.06)" style="fill:#fff"/><path d="M138.16,132.62c0,3.45.49,4.31,2.46,4.31,1.35,0,2.46-.62,2.46-1.23s-0.86-1.23-2-1.23c-1.48,0-1.85-.86-1.48-3.08,0.37-1.72.12-3.08-.37-3.08S138.16,130.28,138.16,132.62Z" transform="translate(-7.67 -63.06)" style="fill:#fff"/><path d="M150.48,132.62c0,2.34.62,4.31,1.23,4.31s1.23-2,1.23-4.31-0.49-4.31-1.23-4.31S150.48,130.28,150.48,132.62Z" transform="translate(-7.67 -63.06)" style="fill:#fff"/><path d="M160.32,129.42c0,2.22,2.46,7.51,3.45,7.51s4.19-7.63,3.32-8.49c-0.37-.25-1.48.49-2.46,1.85-1.6,2.09-1.72,2.09-1.85.12S160.32,127.33,160.32,129.42Z" transform="translate(-7.67 -63.06)" style="fill:#fff"/><path d="M175.1,132.62c0,3.82.37,4.31,3.08,4.31,1.72,0,3.08-.62,3.08-1.23s-1-1.23-2.09-1.23c-1.85,0-2-.25-0.37-1.23,1.23-.74,1.35-1.23.37-1.23-2.34,0-2-2.22.62-2.83,1.23-.37.74-0.62-1.23-0.74C175.47,128.31,175.1,128.68,175.1,132.62Z" transform="translate(-7.67 -63.06)" style="fill:#fff"/></svg>