<?xml version="1.0" encoding="utf-8"?>
<!-- Generator: Adobe Illustrator 20.1.0, SVG Export Plug-In . SVG Version: 6.00 Build 0)  -->
<svg version="1.1" id="圖層_1" xmlns="http://www.w3.org/2000/svg" xmlns:xlink="http://www.w3.org/1999/xlink" x="0px" y="0px"
	 viewBox="0 0 200 200" style="enable-background:new 0 0 200 200;" xml:space="preserve">
<style type="text/css">
	.st0{fill:#FFFFFF;}
</style>
<g transform="translate(0.000000,200.000000) scale(0.100000,-0.100000)">
	<path class="st0" d="M76.7,1086.2V803h295.5c293,0,294.2,0,309,28.3c8.6,14.8,38.2,113.3,66.5,217.9
		c49.2,183.4,50.5,190.8,27.1,194.5c-30.8,6.2-39.4-8.6-57.9-98.5c-8.6-39.4-19.7-73.9-24.6-77.6c-3.7-2.5-17.2,35.7-29.5,86.2
		c-19.7,83.7-24.6,92.3-51.7,92.3c-16,0-29.5-4.9-29.5-9.8c0-6.2,17.2-70.2,36.9-141.6C659,950.8,661.4,923.7,643,888
		c-12.3-22.2-28.3-23.4-258.5-23.4H138.2v221.6v221.6H1000h861.8v-221.6V864.6h-546.6c-574.9,0-561.4,1.2-561.4-50.5
		c0-6.2,237.6-11.1,584.8-11.1h584.8v283.2v283.2H1000H76.7V1086.2z"/>
	<path class="st0" d="M1297.9,1248.7c-27.1-3.7-28.3-6.2-24.6-166.2L1277,920l102.2-3.7c101-3.7,101-3.7,101,28.3
		c0,29.5-2.5,30.8-73.9,30.8h-72.6l-3.7,139.1C1326.2,1249.9,1326.2,1252.4,1297.9,1248.7z"/>
	<path class="st0" d="M250.3,1215.5c-101-84.9-66.5-252.4,59.1-290.5c55.4-16,120.6,0,155.1,38.2c19.7,20.9,19.7,23.4-4.9,36.9
		c-20.9,9.8-32,9.8-52.9-6.2c-33.2-22.2-82.5-23.4-109.6-2.5c-104.6,80,0,263.5,107.1,187.1c23.4-14.8,29.5-14.8,49.2,0
		c22.2,18.5,22.2,19.7-6.2,43.1C402.9,1259.8,299.5,1256.1,250.3,1215.5z"/>
	<path class="st0" d="M936,1217.9c-44.3-36.9-59.1-71.4-59.1-135.4c0-136.7,157.6-216.7,261-131.7c25.9,20.9,27.1,24.6,7.4,44.3
		c-18.5,18.5-22.2,18.5-48,0c-41.9-28.3-93.6-24.6-128,11.1c-52.9,51.7-34.5,151.4,34.5,179.7c30.8,13.5,41.9,12.3,73.9-4.9
		c27.1-16,40.6-18.5,52.9-7.4c44.3,35.7-2.5,71.4-93.6,72.6C984,1246.2,961.8,1240.1,936,1217.9z"/>
	<path class="st0" d="M1578.6,1080V913.8h117c117,0,117,0,117,30.8c0,29.5-2.5,30.8-86.2,30.8h-86.2v43.1v43.1h67.7
		c64,0,67.7,1.2,67.7,30.8s-3.7,30.8-67.7,30.8c-66.5,0-67.7,0-67.7,36.9v36.9h86.2c77.6,0,86.2,2.5,86.2,24.6
		c0,23.4-8.6,24.6-117,24.6h-117V1080z"/>
	<path class="st0" d="M848.6,720.5c-13.5-12.3-9.8-89.9,3.7-89.9c7.4,0,12.3,22.2,12.3,49.2C864.6,730.4,862.1,735.3,848.6,720.5z"
		/>
	<path class="st0" d="M187.5,673.8c0-39.4,3.7-43.1,34.5-43.1c29.5,1.2,30.8,2.5,12.3,17.2c-12.3,8.6-22.2,28.3-22.2,43.1
		c0,13.5-4.9,25.9-12.3,25.9C193.6,716.9,187.5,697.2,187.5,673.8z"/>
	<path class="st0" d="M310.6,673.8c0-23.4,6.2-43.1,12.3-43.1c7.4,0,12.3,19.7,12.3,43.1s-4.9,43.1-12.3,43.1
		C316.7,716.9,310.6,697.2,310.6,673.8z"/>
	<path class="st0" d="M421.4,673.8c0-23.4,6.2-43.1,12.3-43.1c7.4,0,12.3,7.4,12.3,17.2s9.8,20.9,22.2,23.4c19.7,4.9,19.7,6.2,0,7.4
		c-12.3,0-22.2,6.2-22.2,12.3s9.8,14.8,22.2,17.2c12.3,3.7,7.4,6.2-12.3,7.4C425.1,716.9,421.4,713.2,421.4,673.8z"/>
	<path class="st0" d="M556.8,673.8c0-38.2,3.7-43.1,30.8-43.1c17.2,0,30.8,6.2,30.8,12.3c0,7.4-9.8,12.3-20.9,12.3
		c-18.5,0-19.7,2.5-3.7,12.3c12.3,7.4,13.5,12.3,3.7,12.3c-23.4,0-19.7,22.2,6.2,28.3c12.3,3.7,7.4,6.2-12.3,7.4
		C560.5,716.9,556.8,713.2,556.8,673.8z"/>
	<path class="st0" d="M950.8,693.5c0-13.5,7.4-27.1,16-29.5c8.6-3.7,4.9-7.4-7.4-7.4c-29.5-1.2-13.5-25.9,17.2-25.9
		c27.1,0,33.2,43.1,8.6,52.9c-12.3,4.9-12.3,7.4,0,7.4c24.6,2.5,16,25.9-9.8,25.9C959.4,716.9,950.8,708.2,950.8,693.5z"/>
	<path class="st0" d="M1236.4,677.5c-16-43.1-9.8-59.1,12.3-36.9c11.1,11.1,18.5,11.1,30.8,0c8.6-7.4,19.7-11.1,22.2-7.4
		c9.8,9.8-23.4,83.7-36.9,83.7C1257.3,716.9,1245,699.6,1236.4,677.5z"/>
	<path class="st0" d="M1381.6,673.8c0-34.5,4.9-43.1,24.6-43.1c13.5,0,24.6,6.2,24.6,12.3c0,7.4-8.6,12.3-19.7,12.3
		c-14.8,0-18.5,8.6-14.8,30.8c3.7,17.2,1.2,30.8-3.7,30.8C1386.6,716.9,1381.6,697.2,1381.6,673.8z"/>
	<path class="st0" d="M1504.8,673.8c0-23.4,6.2-43.1,12.3-43.1c7.4,0,12.3,19.7,12.3,43.1s-4.9,43.1-12.3,43.1
		C1510.9,716.9,1504.8,697.2,1504.8,673.8z"/>
	<path class="st0" d="M1603.2,705.8c0-22.2,24.6-75.1,34.5-75.1c11.1,0,41.9,76.3,33.2,84.9c-3.7,2.5-14.8-4.9-24.6-18.5
		c-16-20.9-17.2-20.9-18.5-1.2C1627.9,716.9,1603.2,726.7,1603.2,705.8z"/>
	<path class="st0" d="M1751,673.8c0-38.2,3.7-43.1,30.8-43.1c17.2,0,30.8,6.2,30.8,12.3c0,7.4-9.8,12.3-20.9,12.3
		c-18.5,0-19.7,2.5-3.7,12.3c12.3,7.4,13.5,12.3,3.7,12.3c-23.4,0-19.7,22.2,6.2,28.3c12.3,3.7,7.4,6.2-12.3,7.4
		C1754.7,716.9,1751,713.2,1751,673.8z"/>
</g>
</svg>
