<?xml version="1.0" encoding="utf-8"?>
<!-- Generator: Adobe Illustrator 20.1.0, SVG Export Plug-In . SVG Version: 6.00 Build 0)  -->
<svg version="1.1" id="Layer_1" xmlns="http://www.w3.org/2000/svg" xmlns:xlink="http://www.w3.org/1999/xlink" x="0px" y="0px"
	 viewBox="0 0 155.3 173.6" style="enable-background:new 0 0 155.3 173.6;" xml:space="preserve">
<style type="text/css">
	.st0{enable-background:new    ;}
	.st1{fill:#FFFFFF;}
</style>
<title>imchrispan</title>
<g class="st0">
	<path class="st1" d="M89.8,6.3v47.4H77.4V6.3H89.8z"/>
	<path class="st1" d="M101.2,6.3v4.2c0,2.2-0.3,4-0.8,5.5s-1.4,2.6-2.7,3.6s-2.8,1.7-4.4,2v-3.4c1.2-0.6,1.8-1.5,2-2.6h-2V6.3H101.2
		z"/>
	<path class="st1" d="M142.8,6.3v47.4h-10.8l0-32l-4.3,32h-7.6l-4.5-31.3l0,31.3h-10.8V6.3h16c0.5,2.9,1,6.2,1.5,10.1l1.8,12.1
		l2.8-22.1H142.8z"/>
</g>
<g class="st0">
	<path class="st1" d="M31.3,76.6H18.9v-8.2c0-2.4-0.1-3.9-0.4-4.5c-0.3-0.6-0.8-0.9-1.7-0.9c-1,0-1.7,0.4-1.9,1.1
		c-0.3,0.7-0.4,2.3-0.4,4.7v22c0,2.3,0.1,3.8,0.4,4.5c0.3,0.7,0.9,1.1,1.8,1.1c0.9,0,1.5-0.4,1.8-1.1c0.3-0.7,0.4-2.4,0.4-5v-6h12.3
		v1.8c0,4.9-0.3,8.4-1,10.4c-0.7,2.1-2.2,3.9-4.6,5.4c-2.4,1.5-5.3,2.3-8.8,2.3c-3.6,0-6.6-0.7-8.9-2S4,99.3,3.3,97
		s-1.1-5.8-1.1-10.4V72.7c0-3.4,0.1-6,0.4-7.7s0.9-3.4,2.1-4.9c1.2-1.6,2.8-2.8,4.8-3.7c2.1-0.9,4.4-1.4,7.1-1.4
		c3.6,0,6.6,0.7,9,2.1c2.4,1.4,3.9,3.2,4.7,5.3c0.7,2.1,1.1,5.4,1.1,9.8V76.6z"/>
	<path class="st1" d="M64,56v47.4H51.7V83.5H48v19.9H35.7V56H48v17h3.7V56H64z"/>
	<path class="st1" d="M69,56h8.7c5.8,0,9.8,0.2,11.8,0.7s3.7,1.6,5,3.4s1.9,4.8,1.9,8.8c0,3.7-0.5,6.2-1.4,7.4s-2.7,2-5.4,2.3
		c2.4,0.6,4.1,1.4,4.9,2.4s1.4,1.9,1.6,2.8s0.3,3.2,0.3,7v12.5H85.1V87.7c0-2.5-0.2-4.1-0.6-4.7S83,82,81.3,82v21.4H69V56z
		 M81.3,64.1v10.5c1.4,0,2.4-0.2,2.9-0.6s0.8-1.6,0.8-3.7v-2.6c0-1.5-0.3-2.5-0.8-3S82.8,64.1,81.3,64.1z"/>
	<path class="st1" d="M113.6,56v47.4h-12.3V56H113.6z"/>
	<path class="st1" d="M144.7,70.3h-11.5v-3.5c0-1.6-0.1-2.7-0.4-3.1s-0.8-0.7-1.5-0.7c-0.7,0-1.3,0.3-1.7,0.9s-0.6,1.5-0.6,2.8
		c0,1.6,0.2,2.8,0.6,3.6c0.4,0.8,1.6,1.8,3.5,2.9c5.5,3.3,8.9,5.9,10.4,8s2.1,5.5,2.1,10.1c0,3.4-0.4,5.9-1.2,7.5s-2.3,2.9-4.6,4
		s-4.9,1.6-7.9,1.6c-3.3,0-6.1-0.6-8.5-1.9s-3.9-2.8-4.6-4.8s-1.1-4.7-1.1-8.2v-3.1h11.5v5.8c0,1.8,0.2,2.9,0.5,3.4s0.9,0.8,1.7,0.8
		s1.4-0.3,1.8-1s0.6-1.6,0.6-2.9c0-2.8-0.4-4.6-1.1-5.5c-0.8-0.9-2.7-2.3-5.8-4.3c-3.1-2-5.1-3.5-6.1-4.4s-1.8-2.2-2.5-3.8
		s-1-3.7-1-6.2c0-3.6,0.5-6.3,1.4-8s2.4-3,4.5-3.9S128,55,131,55c3.2,0,5.9,0.5,8.2,1.6s3.8,2.3,4.5,3.9s1.1,4.2,1.1,8V70.3z"/>
</g>
<g class="st0">
	<path class="st1" d="M58.3,106.3h12.4c3.4,0,5.9,0.3,7.7,0.8s3.2,1.3,4.1,2.3s1.5,2.2,1.8,3.6s0.5,3.6,0.5,6.6v4.1
		c0,3-0.3,5.2-0.9,6.6s-1.8,2.5-3.4,3.2s-3.9,1.1-6.5,1.1h-3.3v19.1H58.3V106.3z M70.6,114.4v12.1c0.4,0,0.7,0,0.9,0
		c1.1,0,1.9-0.3,2.4-0.8s0.7-1.7,0.7-3.5v-3.9c0-1.6-0.3-2.7-0.8-3.2C73.3,114.7,72.2,114.4,70.6,114.4z"/>
</g>
<g class="st0">
	<path class="st1" d="M108.2,106.3l7.1,47.4h-12.6l-0.7-8.5h-4.4l-0.7,8.5H84.1l6.3-47.4H108.2z M101.7,136.8
		c-0.6-5.4-1.3-12-1.9-19.9c-1.3,9.1-2,15.7-2.4,19.9H101.7z"/>
	<path class="st1" d="M144.9,106.3v47.4h-10.8l-6.4-21.6v21.6h-10.3v-47.4h10.3l6.9,21.4v-21.4H144.9z"/>
</g>
</svg>
