<svg id="Layer_1" data-name="Layer 1" xmlns="http://www.w3.org/2000/svg" viewBox="0 0 119.67 98.48"><title>logo_w</title><path d="M323.36,624.1l7.05,47.43H317.81L317.15,663h-4.41L312,671.53H299.24l6.29-47.43h17.83Zm-6.54,30.5q-0.94-8.06-1.88-19.92-1.89,13.62-2.37,19.92h4.25Z" transform="translate(-240.38 -574.05)" style="fill:#fff"/><path d="M360,624.1v47.43H349.24L342.82,650v21.56H332.51V624.1h10.31l6.91,21.36V624.1H360Z" transform="translate(-240.38 -574.05)" style="fill:#fff"/><path d="M271.3,595.26H259v-8.08a14.19,14.19,0,0,0-.4-4.4,1.71,1.71,0,0,0-1.74-.87A1.83,1.83,0,0,0,254.9,583a15.85,15.85,0,0,0-.41,4.59v21.59a14.78,14.78,0,0,0,.41,4.42,1.76,1.76,0,0,0,1.85,1,1.74,1.74,0,0,0,1.8-1,16.58,16.58,0,0,0,.42-4.86v-5.84H271.3v1.81q0,7.22-1,10.23a10.51,10.51,0,0,1-4.6,5.29,16,16,0,0,1-8.77,2.27,18.49,18.49,0,0,1-8.94-1.92,9.41,9.41,0,0,1-4.66-5.33q-1.14-3.4-1.14-10.23V591.42a59.17,59.17,0,0,1,.35-7.54A10.44,10.44,0,0,1,244.6,579a11.65,11.65,0,0,1,4.83-3.66,20.15,20.15,0,0,1,16.1.73,10,10,0,0,1,4.66,5.15q1.11,3.08,1.11,9.59v4.42Z" transform="translate(-240.38 -574.05)" style="fill:#fff"/><path d="M306.19,575v47.43H293.85V602.55h-3.69v19.92H277.83V575h12.33v17h3.69V575h12.33Z" transform="translate(-240.38 -574.05)" style="fill:#fff"/><path d="M313.24,575H322q8.73,0,11.82.67a8.14,8.14,0,0,1,5,3.44q1.95,2.77,1.95,8.83,0,5.54-1.38,7.44T334,597.72q3.66,0.91,4.92,2.43a7.26,7.26,0,0,1,1.57,2.8,44.19,44.19,0,0,1,.31,7v12.51H329.32V606.71q0-3.81-.6-4.72t-3.15-.91v21.39H313.24V575Zm12.33,8.12v10.55a5.43,5.43,0,0,0,2.92-.57q0.83-.57.83-3.71v-2.61q0-2.26-.81-3A4.58,4.58,0,0,0,325.57,583.16Z" transform="translate(-240.38 -574.05)" style="fill:#fff"/><path d="M360,575v47.43H347.65V575H360Z" transform="translate(-240.38 -574.05)" style="fill:#fff"/><path d="M267.54,638.45H256.08v-3.52a6.9,6.9,0,0,0-.44-3.13,1.62,1.62,0,0,0-1.46-.67,1.86,1.86,0,0,0-1.68.91,5.27,5.27,0,0,0-.57,2.76,7.81,7.81,0,0,0,.64,3.58q0.61,1.2,3.49,2.9,8.24,4.89,10.37,8t2.14,10.11q0,5.07-1.19,7.47a9.29,9.29,0,0,1-4.58,4,18.14,18.14,0,0,1-7.91,1.63,17.68,17.68,0,0,1-8.45-1.87,9.19,9.19,0,0,1-4.58-4.78,24.48,24.48,0,0,1-1.08-8.23v-3.11h11.46v5.77a7.6,7.6,0,0,0,.48,3.43,1.87,1.87,0,0,0,1.71.76,2,2,0,0,0,1.83-1,5.52,5.52,0,0,0,.6-2.87q0-4.19-1.14-5.48a36.45,36.45,0,0,0-5.77-4.31,56.78,56.78,0,0,1-6.09-4.42,10.35,10.35,0,0,1-2.48-3.81,16.75,16.75,0,0,1-1-6.21q0-5.45,1.39-8a9.36,9.36,0,0,1,4.5-3.94,17.94,17.94,0,0,1,7.5-1.42,19.54,19.54,0,0,1,8.19,1.55,8.57,8.57,0,0,1,4.48,3.91q1.1,2.36,1.1,8v1.88Z" transform="translate(-240.38 -574.05)" style="fill:#fff"/><path d="M272.43,624.1h12.42a29.17,29.17,0,0,1,7.75.79,8.66,8.66,0,0,1,4.07,2.29,7.85,7.85,0,0,1,1.85,3.62,32.4,32.4,0,0,1,.48,6.58v4.13a17.21,17.21,0,0,1-.94,6.62,6.42,6.42,0,0,1-3.44,3.19,16.28,16.28,0,0,1-6.55,1.11h-3.31v19.1H272.43V624.1Zm12.33,8.12v12.07l0.91,0a2.85,2.85,0,0,0,2.36-.83q0.66-.83.66-3.47v-3.9q0-2.43-.76-3.16T284.76,632.21Z" transform="translate(-240.38 -574.05)" style="fill:#fff"/></svg>